<mxfile host="app.diagrams.net" modified="2022-11-04T14:45:04.698Z" agent="5.0 (X11; Linux x86_64) AppleWebKit/537.36 (KHTML, like Gecko) Chrome/103.0.0.0 Safari/537.36" etag="X9gEG27kGcqpg74SPSNp" version="20.5.1" type="github">
  <diagram id="6eiBafZvdbaaH6hVwIQc" name="Page-1">
    <mxGraphModel dx="1240" dy="847" grid="1" gridSize="10" guides="1" tooltips="1" connect="1" arrows="1" fold="1" page="1" pageScale="1" pageWidth="850" pageHeight="1100" math="0" shadow="0">
      <root>
        <mxCell id="0" />
        <mxCell id="1" parent="0" />
        <mxCell id="47W-kIJc0GCAlFT9CI7K-18" value="" style="sketch=0;outlineConnect=0;fontColor=#232F3E;gradientColor=none;fillColor=#4D27AA;strokeColor=none;dashed=0;verticalLabelPosition=bottom;verticalAlign=top;align=center;html=1;fontSize=12;fontStyle=0;aspect=fixed;pointerEvents=1;shape=mxgraph.aws4.route_53_resolver_dns_firewall;" vertex="1" parent="1">
          <mxGeometry x="470" y="80" width="78" height="78" as="geometry" />
        </mxCell>
        <mxCell id="47W-kIJc0GCAlFT9CI7K-19" value="Horizontal Container" style="swimlane;horizontal=0;" vertex="1" parent="1">
          <mxGeometry x="15" y="130" width="820" height="580" as="geometry" />
        </mxCell>
        <mxCell id="47W-kIJc0GCAlFT9CI7K-27" value="" style="endArrow=classic;startArrow=classic;html=1;rounded=0;fontSize=25;entryX=0;entryY=1;entryDx=0;entryDy=0;fontStyle=0;strokeWidth=5;" edge="1" parent="47W-kIJc0GCAlFT9CI7K-19" target="47W-kIJc0GCAlFT9CI7K-15">
          <mxGeometry width="50" height="50" relative="1" as="geometry">
            <mxPoint x="100" y="400" as="sourcePoint" />
            <mxPoint x="190" y="190" as="targetPoint" />
          </mxGeometry>
        </mxCell>
        <mxCell id="47W-kIJc0GCAlFT9CI7K-15" value="VPC" style="points=[[0,0],[0.25,0],[0.5,0],[0.75,0],[1,0],[1,0.25],[1,0.5],[1,0.75],[1,1],[0.75,1],[0.5,1],[0.25,1],[0,1],[0,0.75],[0,0.5],[0,0.25]];outlineConnect=0;gradientColor=none;html=1;whiteSpace=wrap;fontSize=12;fontStyle=0;container=1;pointerEvents=0;collapsible=0;recursiveResize=0;shape=mxgraph.aws4.group;grIcon=mxgraph.aws4.group_vpc;strokeColor=#248814;fillColor=none;verticalAlign=top;align=left;spacingLeft=30;fontColor=#AAB7B8;dashed=0;" vertex="1" parent="47W-kIJc0GCAlFT9CI7K-19">
          <mxGeometry x="284" y="60" width="172" height="120" as="geometry" />
        </mxCell>
        <mxCell id="47W-kIJc0GCAlFT9CI7K-16" value="" style="sketch=0;aspect=fixed;html=1;points=[];align=center;image;fontSize=12;image=img/lib/mscae/Virtual_Machine.svg;" vertex="1" parent="47W-kIJc0GCAlFT9CI7K-15">
          <mxGeometry x="60" y="37" width="50" height="46" as="geometry" />
        </mxCell>
        <mxCell id="47W-kIJc0GCAlFT9CI7K-20" value="VPC" style="points=[[0,0],[0.25,0],[0.5,0],[0.75,0],[1,0],[1,0.25],[1,0.5],[1,0.75],[1,1],[0.75,1],[0.5,1],[0.25,1],[0,1],[0,0.75],[0,0.5],[0,0.25]];outlineConnect=0;gradientColor=none;html=1;whiteSpace=wrap;fontSize=12;fontStyle=0;container=1;pointerEvents=0;collapsible=0;recursiveResize=0;shape=mxgraph.aws4.group;grIcon=mxgraph.aws4.group_vpc;strokeColor=#248814;fillColor=none;verticalAlign=top;align=left;spacingLeft=30;fontColor=#AAB7B8;dashed=0;" vertex="1" parent="47W-kIJc0GCAlFT9CI7K-19">
          <mxGeometry x="60" y="410" width="172" height="120" as="geometry" />
        </mxCell>
        <mxCell id="47W-kIJc0GCAlFT9CI7K-21" value="" style="sketch=0;aspect=fixed;html=1;points=[];align=center;image;fontSize=12;image=img/lib/mscae/Virtual_Machine.svg;" vertex="1" parent="47W-kIJc0GCAlFT9CI7K-20">
          <mxGeometry x="60" y="37" width="50" height="46" as="geometry" />
        </mxCell>
        <mxCell id="47W-kIJc0GCAlFT9CI7K-22" value="VPC" style="points=[[0,0],[0.25,0],[0.5,0],[0.75,0],[1,0],[1,0.25],[1,0.5],[1,0.75],[1,1],[0.75,1],[0.5,1],[0.25,1],[0,1],[0,0.75],[0,0.5],[0,0.25]];outlineConnect=0;gradientColor=none;html=1;whiteSpace=wrap;fontSize=12;fontStyle=0;container=1;pointerEvents=0;collapsible=0;recursiveResize=0;shape=mxgraph.aws4.group;grIcon=mxgraph.aws4.group_vpc;strokeColor=#248814;fillColor=none;verticalAlign=top;align=left;spacingLeft=30;fontColor=#AAB7B8;dashed=0;" vertex="1" parent="47W-kIJc0GCAlFT9CI7K-19">
          <mxGeometry x="540" y="410" width="172" height="120" as="geometry" />
        </mxCell>
        <mxCell id="47W-kIJc0GCAlFT9CI7K-23" value="" style="sketch=0;aspect=fixed;html=1;points=[];align=center;image;fontSize=12;image=img/lib/mscae/Virtual_Machine.svg;" vertex="1" parent="47W-kIJc0GCAlFT9CI7K-22">
          <mxGeometry x="60" y="37" width="50" height="46" as="geometry" />
        </mxCell>
        <mxCell id="47W-kIJc0GCAlFT9CI7K-5" value="" style="outlineConnect=0;dashed=0;verticalLabelPosition=bottom;verticalAlign=top;align=center;html=1;shape=mxgraph.aws3.vpc_peering;fillColor=#F58536;gradientColor=none;" vertex="1" parent="47W-kIJc0GCAlFT9CI7K-19">
          <mxGeometry x="180" y="240" width="69" height="72" as="geometry" />
        </mxCell>
        <mxCell id="47W-kIJc0GCAlFT9CI7K-24" value="VPC1" style="text;html=1;strokeColor=none;fillColor=none;align=center;verticalAlign=middle;whiteSpace=wrap;rounded=0;strokeWidth=3;fontSize=24;fontStyle=1" vertex="1" parent="47W-kIJc0GCAlFT9CI7K-19">
          <mxGeometry x="335" y="180" width="60" height="30" as="geometry" />
        </mxCell>
        <mxCell id="47W-kIJc0GCAlFT9CI7K-25" value="VPC2" style="text;html=1;strokeColor=none;fillColor=none;align=center;verticalAlign=middle;whiteSpace=wrap;rounded=0;strokeWidth=3;fontSize=24;fontStyle=1" vertex="1" parent="47W-kIJc0GCAlFT9CI7K-19">
          <mxGeometry x="110" y="530" width="60" height="30" as="geometry" />
        </mxCell>
        <mxCell id="47W-kIJc0GCAlFT9CI7K-26" value="VPC3" style="text;html=1;strokeColor=none;fillColor=none;align=center;verticalAlign=middle;whiteSpace=wrap;rounded=0;strokeWidth=3;fontSize=24;fontStyle=1" vertex="1" parent="47W-kIJc0GCAlFT9CI7K-19">
          <mxGeometry x="590" y="540" width="60" height="30" as="geometry" />
        </mxCell>
        <mxCell id="47W-kIJc0GCAlFT9CI7K-30" value="" style="endArrow=classic;startArrow=classic;html=1;rounded=0;fontSize=25;entryX=1;entryY=1;entryDx=0;entryDy=0;fontStyle=0;strokeWidth=5;exitX=0.5;exitY=0;exitDx=0;exitDy=0;" edge="1" parent="47W-kIJc0GCAlFT9CI7K-19" source="47W-kIJc0GCAlFT9CI7K-22" target="47W-kIJc0GCAlFT9CI7K-15">
          <mxGeometry width="50" height="50" relative="1" as="geometry">
            <mxPoint x="110" y="410" as="sourcePoint" />
            <mxPoint x="350" y="190" as="targetPoint" />
          </mxGeometry>
        </mxCell>
        <mxCell id="47W-kIJc0GCAlFT9CI7K-17" value="" style="outlineConnect=0;dashed=0;verticalLabelPosition=bottom;verticalAlign=top;align=center;html=1;shape=mxgraph.aws3.vpc_peering;fillColor=#F58536;gradientColor=none;" vertex="1" parent="47W-kIJc0GCAlFT9CI7K-19">
          <mxGeometry x="512" y="254" width="69" height="72" as="geometry" />
        </mxCell>
        <mxCell id="47W-kIJc0GCAlFT9CI7K-31" value="" style="endArrow=classic;startArrow=classic;html=1;rounded=0;fontSize=25;entryX=0;entryY=0.5;entryDx=0;entryDy=0;fontStyle=0;strokeWidth=5;" edge="1" parent="47W-kIJc0GCAlFT9CI7K-19" source="47W-kIJc0GCAlFT9CI7K-20" target="47W-kIJc0GCAlFT9CI7K-22">
          <mxGeometry width="50" height="50" relative="1" as="geometry">
            <mxPoint x="381" y="678" as="sourcePoint" />
            <mxPoint x="621" y="458" as="targetPoint" />
          </mxGeometry>
        </mxCell>
        <mxCell id="47W-kIJc0GCAlFT9CI7K-12" value="" style="outlineConnect=0;dashed=0;verticalLabelPosition=bottom;verticalAlign=top;align=center;html=1;shape=mxgraph.aws3.vpc_peering;fillColor=#F58536;gradientColor=none;" vertex="1" parent="47W-kIJc0GCAlFT9CI7K-19">
          <mxGeometry x="381" y="434" width="69" height="72" as="geometry" />
        </mxCell>
        <mxCell id="47W-kIJc0GCAlFT9CI7K-32" value="INTERNET" style="aspect=fixed;perimeter=ellipsePerimeter;html=1;align=center;shadow=0;dashed=0;spacingTop=3;image;image=img/lib/active_directory/internet_cloud.svg;strokeWidth=3;fontSize=25;" vertex="1" parent="1">
          <mxGeometry x="670" y="17.000000000000004" width="100" height="63" as="geometry" />
        </mxCell>
        <mxCell id="47W-kIJc0GCAlFT9CI7K-33" value="" style="endArrow=classic;startArrow=classic;html=1;rounded=0;fontSize=25;entryX=0;entryY=0.5;entryDx=0;entryDy=0;fontStyle=0;strokeWidth=5;" edge="1" parent="1" source="47W-kIJc0GCAlFT9CI7K-18" target="47W-kIJc0GCAlFT9CI7K-32">
          <mxGeometry width="50" height="50" relative="1" as="geometry">
            <mxPoint x="130" y="540" as="sourcePoint" />
            <mxPoint x="370" y="320" as="targetPoint" />
          </mxGeometry>
        </mxCell>
      </root>
    </mxGraphModel>
  </diagram>
</mxfile>
